# xmcd CD database file
# Copyright (C) 1995-1998 Ti Kan
#
# Track frame offsets:
#	150
#	11299
#	24288
#	35326
#	51687
#	59911
#	72143
#	84821
#	101948
#	118045
#	127533
#	140854
#	156843
#	175819
#	187456
#	198513
#	212365
#	232473
#	255670
#	283542
#	302869
#
# Disc length: 4336 seconds
#
# Revision: 1
# Processed by: cddbd v1.4PL0 Copyright (c) Steve Scherf et al.
# Submitted via: CDex 1.30Release
#
DISCID=3910ee15
DTITLE=Дина Веселова - 2000 Блюз одинокой стервы
DYEAR=2000
DGENRE=Blues
TTITLE0=Все, что я могу для тебя
TTITLE1=Научись играть на дудке
TTITLE2=Русский блюз
TTITLE3=Блюз одинокой стервы
TTITLE4=Зима
TTITLE5=Там, вдалеке
TTITLE6=Вокзал
TTITLE7=За улетающем трамваем
TTITLE8=Иди сюда
TTITLE9=Выше, выше, выше
TTITLE10=Вниз по Миссисиппи
TTITLE11=Девочка - смерть
TTITLE12=Кожекин+Жук I'm scared of that child (I'm too young to die) [Sonny 
TTITLE12=Boy Williamson II]
TTITLE13=Кожекин+Жук Какие понты Good morning little schoolgirl [Muddy Water
TTITLE13=s]
TTITLE14=Кожекин+Жук Статья на ножках Travelling riverside Blues (Lemon song
TTITLE14=) [Robert Johnson]
TTITLE15=Кожекин+Жук 16
TTITLE16=Кожекин+Жук 17
TTITLE17=Кожекин+Жук Ей все в кайф Who's been talking [Howling Wolf]
TTITLE18=Жук - Oh my baby, take me back. (Lighting Hopkins)
TTITLE19=Кожекин+Жук Май месяц
TTITLE20=Жук - блюз "Моя девушка меня бросила"
EXTD=YEAR: 2000 ID3G:   0
EXTT0=
EXTT1=
EXTT2=
EXTT3=
EXTT4=
EXTT5=
EXTT6=
EXTT7=
EXTT8=
EXTT9=
EXTT10=
EXTT11=
EXTT12=
EXTT13=
EXTT14=
EXTT15=
EXTT16=
EXTT17=
EXTT18=
EXTT19=
EXTT20=
PLAYORDER=
